# xmcd
# Copyright (C) 1995-1998 Ti Kan
#
# Track frame offsets:
#       150
#       96075
#       199450
#
# Disc length: 3897 seconds
#
# Revision: 0
# Processed by: cddbd v1.5.2PL0 Copyright (c) Steve Scherf et al.
# Submitted via: CD-Transfer v1.0
#
DISCID=240f3703
DTITLE=Willy Beer - 
DYEAR=1900
DGENRE=
TTITLE0=Musigparade 17.12. - 04
TTITLE1=Musigparade 17.12. - 05
TTITLE2=Musigparade 17.12. - 06
EXTD=
EXTT0=
EXTT1=
EXTT2=
PLAYORDER=
